{
	"asset":{
		"generator":"Khronos glTF Blender I/O v3.6.27",
		"version":"2.0"
	},
	"scene":0,
	"scenes":[
		{
			"name":"Scene",
			"nodes":[
				0
			]
		}
	],
	"nodes":[
		{
			"mesh":0,
			"name":"Cone",
			"rotation":[
				0,
				0,
				-0.7071068286895752,
				0.7071068286895752
			]
		}
	],
	"meshes":[
		{
			"name":"Cone",
			"primitives":[
				{
					"attributes":{
						"POSITION":0,
						"NORMAL":1,
						"TEXCOORD_0":2
					},
					"indices":3
				}
			]
		}
	],
	"accessors":[
		{
			"bufferView":0,
			"componentType":5126,
			"count":68,
			"max":[
				0,
				1,
				1
			],
			"min":[
				-1,
				-1,
				-1
			],
			"type":"VEC3"
		},
		{
			"bufferView":1,
			"componentType":5126,
			"count":68,
			"type":"VEC3"
		},
		{
			"bufferView":2,
			"componentType":5126,
			"count":68,
			"type":"VEC2"
		},
		{
			"bufferView":3,
			"componentType":5123,
			"count":96,
			"type":"SCALAR"
		}
	],
	"bufferViews":[
		{
			"buffer":0,
			"byteLength":816,
			"byteOffset":0,
			"target":34962
		},
		{
			"buffer":0,
			"byteLength":816,
			"byteOffset":816,
			"target":34962
		},
		{
			"buffer":0,
			"byteLength":544,
			"byteOffset":1632,
			"target":34962
		},
		{
			"buffer":0,
			"byteLength":192,
			"byteOffset":2176,
			"target":34963
		}
	],
	"buffers":[
		{
			"byteLength":2368,
			"uri":"data:application/octet-stream;base64,"
		}
	]
}
